<svg aria-hidden="true" style="width:0;height:0;position:absolute;overflow:hidden" xmlns="http://www.w3.org/2000/svg"><defs><symbol id="icon-icon-phone" viewBox="0 0 32 32"><path d="M22 20c-2 2-2 4-4 4s-4-2-6-4-4-4-4-6 2-2 4-4-4-8-6-8-6 6-6 6c0 4 4.109 12.109 8 16s12 8 16 8c0 0 6-4 6-6s-6-8-8-6z"/></symbol><symbol id="icon-location" viewBox="0 0 32 32"><path d="M16 0C10.477 0 6 4.477 6 10c0 10 10 22 10 22s10-12 10-22c0-5.523-4.477-10-10-10zm0 16.125a6.125 6.125 0 1 1 0-12.25 6.125 6.125 0 0 1 0 12.25zM12.125 10a3.875 3.875 0 1 1 7.75 0 3.875 3.875 0 0 1-7.75 0z"/></symbol><symbol id="icon-ico-shape-left" viewBox="0 0 64 32"><path d="M64 16c0-.982-.796-1.778-1.778-1.778H5.333a1.778 1.778 0 1 0 0 3.556h56.889c.982 0 1.778-.796 1.778-1.778z"/><path d="M19.035 2.298a1.778 1.778 0 0 0-2.514 0L2.819 16l13.702 13.701a1.778 1.778 0 0 0 2.514-2.514L7.848 16 19.035 4.813a1.778 1.778 0 0 0 0-2.514z"/></symbol><symbol id="icon-ico-shape-right" viewBox="0 0 68 32"><path d="M3.325 16c0-.982.796-1.778 1.778-1.778h56.889a1.778 1.778 0 1 1 0 3.556H5.103A1.778 1.778 0 0 1 3.325 16z"/><path d="M48.291 2.298a1.778 1.778 0 0 1 2.514 0L64.506 16 50.805 29.701a1.778 1.778 0 0 1-2.514-2.514L59.478 16 48.291 4.813a1.778 1.778 0 0 1 0-2.514z"/></symbol><symbol id="icon-arrow-right" viewBox="0 0 32 32"><path d="m19.414 27.414 10-10a2 2 0 0 0 0-2.828l-10-10a2 2 0 1 0-2.828 2.828L23.172 14H4a2 2 0 1 0 0 4h19.172l-6.586 6.586c-.39.39-.586.902-.586 1.414s.195 1.024.586 1.414a2 2 0 0 0 2.828 0z"/></symbol><symbol id="icon-arrow-left" viewBox="0 0 32 32"><path d="m12.586 27.414-10-10a2 2 0 0 1 0-2.828l10-10a2 2 0 1 1 2.828 2.828L8.828 14H28a2 2 0 1 1 0 4H8.828l6.586 6.586c.39.39.586.902.586 1.414s-.195 1.024-.586 1.414a2 2 0 0 1-2.828 0z"/></symbol><symbol id="icon-mail" viewBox="0 0 32 32"><path d="M26.667 0H5.334C2.4 0 0 2.4 0 5.334v21.332C0 29.602 2.4 32 5.334 32h21.333C29.601 32 32 29.602 32 26.666V5.334C32 2.4 29.601 0 26.667 0zm0 4c.25 0 .486.073.688.198L16 13.586 4.645 4.199c.202-.125.439-.198.689-.198h21.333zM5.334 28a1.32 1.32 0 0 1-.178-.013l7.051-9.78-.914-.914L4 24.586V5.488L16 20 28 5.488v19.098l-7.293-7.293-.914.914 7.051 9.78a1.294 1.294 0 0 1-.177.013H5.334z"/></symbol><symbol id="icon-facebook" viewBox="0 0 32 32"><path d="M19 6h5V0h-5c-3.86 0-7 3.14-7 7v3H8v6h4v16h6V16h5l1-6h-6V7c0-.542.458-1 1-1z"/></symbol><symbol id="icon-twitter" viewBox="0 0 32 32"><path d="M32 7.075a12.941 12.941 0 0 1-3.769 1.031 6.601 6.601 0 0 0 2.887-3.631 13.21 13.21 0 0 1-4.169 1.594A6.565 6.565 0 0 0 22.155 4a6.563 6.563 0 0 0-6.563 6.563c0 .512.056 1.012.169 1.494A18.635 18.635 0 0 1 2.23 5.195a6.56 6.56 0 0 0-.887 3.3 6.557 6.557 0 0 0 2.919 5.463 6.565 6.565 0 0 1-2.975-.819v.081a6.565 6.565 0 0 0 5.269 6.437 6.574 6.574 0 0 1-2.968.112 6.588 6.588 0 0 0 6.131 4.563 13.17 13.17 0 0 1-9.725 2.719 18.568 18.568 0 0 0 10.069 2.95c12.075 0 18.681-10.006 18.681-18.681 0-.287-.006-.569-.019-.85A13.216 13.216 0 0 0 32 7.076z"/></symbol><symbol id="icon-linkedin" viewBox="0 0 32 32"><path d="M29 0H3C1.35 0 0 1.35 0 3v26c0 1.65 1.35 3 3 3h26c1.65 0 3-1.35 3-3V3c0-1.65-1.35-3-3-3zM12 26H8V12h4v14zm-2-16c-1.106 0-2-.894-2-2s.894-2 2-2c1.106 0 2 .894 2 2s-.894 2-2 2zm16 16h-4v-8c0-1.106-.894-2-2-2s-2 .894-2 2v8h-4V12h4v2.481C18.825 13.35 20.087 12 21.5 12c2.488 0 4.5 2.238 4.5 5v9z"/></symbol><symbol id="icon-pinterest" viewBox="0 0 32 32"><path d="M16 0C7.175 0 0 7.175 0 16s7.175 16 16 16 16-7.175 16-16S24.825 0 16 0zm0 29.863c-1.431 0-2.806-.219-4.106-.619.563-.919 1.412-2.431 1.725-3.631.169-.65.863-3.294.863-3.294.45.863 1.775 1.594 3.175 1.594 4.181 0 7.194-3.844 7.194-8.625 0-4.581-3.738-8.006-8.544-8.006-5.981 0-9.156 4.019-9.156 8.387 0 2.031 1.081 4.563 2.813 5.369.262.125.4.069.463-.188.044-.194.281-1.131.387-1.575a.427.427 0 0 0-.094-.4c-.575-.694-1.031-1.975-1.031-3.162 0-3.056 2.313-6.019 6.256-6.019 3.406 0 5.788 2.319 5.788 5.637 0 3.75-1.894 6.35-4.356 6.35-1.363 0-2.381-1.125-2.05-2.506.394-1.65 1.15-3.425 1.15-4.613 0-1.063-.569-1.95-1.756-1.95-1.394 0-2.506 1.438-2.506 3.369 0 1.225.412 2.056.412 2.056s-1.375 5.806-1.625 6.887c-.281 1.2-.169 2.881-.05 3.975-5.156-2.012-8.813-7.025-8.813-12.9 0-7.656 6.206-13.863 13.862-13.863s13.863 6.206 13.863 13.863c0 7.656-6.206 13.863-13.863 13.863z"/></symbol><symbol id="icon-Check" viewBox="0 0 32 32"><path fill="#f3f3f3" style="fill:var(--color1,#f3f3f3)" d="M5.333.916h21.333a5.333 5.333 0 0 1 5.333 5.333v20.35a5.333 5.333 0 0 1-5.333 5.333H5.333A5.333 5.333 0 0 1 0 26.599V6.249A5.333 5.333 0 0 1 5.333.916z"/><path d="M9.563 16.156c-.498-.464-1.307-.464-1.805 0s-.498 1.217 0 1.681l4.513 4.203c.5.466 1.311.464 1.809-.004l10.165-9.552c.496-.466.493-1.219-.008-1.681s-1.309-.459-1.805.007l-9.263 8.704-3.606-3.358z"/></symbol></defs></svg>